# xmcd CD database file
#
# Track frame offsets:
#	150
#	9174
#	23294
#	38788
#	49410
#	60434
#	73669
#	91121
#	101905
#	112146
#	126448
#	135288
#
# Disc length: 1961 seconds
#
# Revision: 0
# Processed by: cddbd v1.5.2PL0 Copyright (c) Steve Scherf et al.
# Submitted via: CDex 1.70beta3
#
DISCID=9707a70c
DTITLE=ハッチハッチェル - 大百科
DYEAR=2015
DGENRE=Jazz
TTITLE0=ハバナの月
TTITLE1=バッハの嘆き
TTITLE2=ハリ師の中国人
TTITLE3=アーリーインザモーニング築地
TTITLE4=セクシー占い師ベイビー(パート1)
TTITLE5=ヒモ音頭
TTITLE6=源為義
TTITLE7=かんこどり
TTITLE8=セクシー占い師ベイビー(パート2)
TTITLE9=代行稼業
TTITLE10=おひとついかが
TTITLE11=店じまい
EXTD=YEAR: 2015
EXTT0=
EXTT1=
EXTT2=
EXTT3=
EXTT4=
EXTT5=
EXTT6=
EXTT7=
EXTT8=
EXTT9=
EXTT10=
EXTT11=
PLAYORDER=
